<svg width="166" height="48" viewBox="0 0 166 48" fill="none" xmlns="http://www.w3.org/2000/svg">
<path d="M9.97938 26.43C9.97938 26.84 10.0494 27.19 10.1894 27.48C10.3294 27.77 10.5244 28.01 10.7744 28.2C11.0244 28.38 11.3094 28.515 11.6294 28.605C11.9594 28.685 12.3144 28.725 12.6944 28.725C13.1044 28.725 13.4544 28.68 13.7444 28.59C14.0344 28.49 14.2694 28.365 14.4494 28.215C14.6294 28.065 14.7594 27.895 14.8394 27.705C14.9194 27.505 14.9594 27.305 14.9594 27.105C14.9594 26.695 14.8644 26.395 14.6744 26.205C14.4944 26.005 14.2944 25.865 14.0744 25.785C13.6944 25.645 13.2494 25.515 12.7394 25.395C12.2394 25.265 11.6194 25.1 10.8794 24.9C10.4194 24.78 10.0344 24.625 9.72438 24.435C9.42438 24.235 9.18438 24.015 9.00438 23.775C8.82438 23.535 8.69438 23.28 8.61438 23.01C8.54438 22.74 8.50938 22.465 8.50938 22.185C8.50938 21.645 8.61938 21.18 8.83938 20.79C9.06938 20.39 9.36938 20.06 9.73938 19.8C10.1094 19.54 10.5294 19.35 10.9994 19.23C11.4694 19.1 11.9444 19.035 12.4244 19.035C12.9844 19.035 13.5094 19.11 13.9994 19.26C14.4994 19.4 14.9344 19.615 15.3044 19.905C15.6844 20.195 15.9844 20.555 16.2044 20.985C16.4244 21.405 16.5344 21.895 16.5344 22.455H14.6594C14.6094 21.765 14.3744 21.28 13.9544 21C13.5344 20.71 12.9994 20.565 12.3494 20.565C12.1294 20.565 11.9044 20.59 11.6744 20.64C11.4444 20.68 11.2344 20.755 11.0444 20.865C10.8544 20.965 10.6944 21.105 10.5644 21.285C10.4444 21.465 10.3844 21.69 10.3844 21.96C10.3844 22.34 10.4994 22.64 10.7294 22.86C10.9694 23.07 11.2794 23.23 11.6594 23.34C11.6994 23.35 11.8544 23.395 12.1244 23.475C12.4044 23.545 12.7144 23.625 13.0544 23.715C13.3944 23.805 13.7244 23.895 14.0444 23.985C14.3744 24.065 14.6094 24.125 14.7494 24.165C15.0994 24.275 15.4044 24.425 15.6644 24.615C15.9244 24.805 16.1394 25.025 16.3094 25.275C16.4894 25.515 16.6194 25.775 16.6994 26.055C16.7894 26.335 16.8344 26.615 16.8344 26.895C16.8344 27.495 16.7094 28.01 16.4594 28.44C16.2194 28.86 15.8994 29.205 15.4994 29.475C15.0994 29.745 14.6444 29.94 14.1344 30.06C13.6244 30.19 13.1044 30.255 12.5744 30.255C11.9644 30.255 11.3894 30.18 10.8494 30.03C10.3094 29.88 9.83938 29.65 9.43938 29.34C9.03938 29.03 8.71938 28.635 8.47938 28.155C8.23938 27.665 8.11438 27.09 8.10437 26.43H9.97938ZM18.2359 19.29H19.9459V23.265H19.9759C20.1859 22.915 20.4959 22.625 20.9059 22.395C21.3259 22.155 21.7909 22.035 22.3009 22.035C23.1509 22.035 23.8209 22.255 24.3109 22.695C24.8009 23.135 25.0459 23.795 25.0459 24.675V30H23.3359V25.125C23.3159 24.515 23.1859 24.075 22.9459 23.805C22.7059 23.525 22.3309 23.385 21.8209 23.385C21.5309 23.385 21.2709 23.44 21.0409 23.55C20.8109 23.65 20.6159 23.795 20.4559 23.985C20.2959 24.165 20.1709 24.38 20.0809 24.63C19.9909 24.88 19.9459 25.145 19.9459 25.425V30H18.2359V19.29ZM30.4042 30.21C29.7842 30.21 29.2292 30.11 28.7392 29.91C28.2592 29.7 27.8492 29.415 27.5092 29.055C27.1792 28.695 26.9242 28.265 26.7442 27.765C26.5742 27.265 26.4892 26.715 26.4892 26.115C26.4892 25.525 26.5742 24.98 26.7442 24.48C26.9242 23.98 27.1792 23.55 27.5092 23.19C27.8492 22.83 28.2592 22.55 28.7392 22.35C29.2292 22.14 29.7842 22.035 30.4042 22.035C31.0242 22.035 31.5742 22.14 32.0542 22.35C32.5442 22.55 32.9542 22.83 33.2842 23.19C33.6242 23.55 33.8792 23.98 34.0492 24.48C34.2292 24.98 34.3192 25.525 34.3192 26.115C34.3192 26.715 34.2292 27.265 34.0492 27.765C33.8792 28.265 33.6242 28.695 33.2842 29.055C32.9542 29.415 32.5442 29.7 32.0542 29.91C31.5742 30.11 31.0242 30.21 30.4042 30.21ZM30.4042 28.86C30.7842 28.86 31.1142 28.78 31.3942 28.62C31.6742 28.46 31.9042 28.25 32.0842 27.99C32.2642 27.73 32.3942 27.44 32.4742 27.12C32.5642 26.79 32.6092 26.455 32.6092 26.115C32.6092 25.785 32.5642 25.455 32.4742 25.125C32.3942 24.795 32.2642 24.505 32.0842 24.255C31.9042 23.995 31.6742 23.785 31.3942 23.625C31.1142 23.465 30.7842 23.385 30.4042 23.385C30.0242 23.385 29.6942 23.465 29.4142 23.625C29.1342 23.785 28.9042 23.995 28.7242 24.255C28.5442 24.505 28.4092 24.795 28.3192 25.125C28.2392 25.455 28.1992 25.785 28.1992 26.115C28.1992 26.455 28.2392 26.79 28.3192 27.12C28.4092 27.44 28.5442 27.73 28.7242 27.99C28.9042 28.25 29.1342 28.46 29.4142 28.62C29.6942 28.78 30.0242 28.86 30.4042 28.86ZM35.7858 22.245H37.4058V23.295H37.4358C37.6758 22.845 38.0108 22.525 38.4408 22.335C38.8708 22.135 39.3358 22.035 39.8358 22.035C40.4458 22.035 40.9758 22.145 41.4258 22.365C41.8858 22.575 42.2658 22.87 42.5658 23.25C42.8658 23.62 43.0908 24.055 43.2408 24.555C43.3908 25.055 43.4658 25.59 43.4658 26.16C43.4658 26.68 43.3958 27.185 43.2558 27.675C43.1258 28.165 42.9208 28.6 42.6408 28.98C42.3708 29.35 42.0258 29.65 41.6058 29.88C41.1858 30.1 40.6908 30.21 40.1208 30.21C39.8708 30.21 39.6208 30.185 39.3708 30.135C39.1208 30.095 38.8808 30.025 38.6508 29.925C38.4208 29.825 38.2058 29.7 38.0058 29.55C37.8158 29.39 37.6558 29.205 37.5258 28.995H37.4958V32.865H35.7858V22.245ZM41.7558 26.13C41.7558 25.78 41.7108 25.44 41.6208 25.11C41.5308 24.78 41.3958 24.49 41.2158 24.24C41.0358 23.98 40.8108 23.775 40.5408 23.625C40.2708 23.465 39.9608 23.385 39.6108 23.385C38.8908 23.385 38.3458 23.635 37.9758 24.135C37.6158 24.635 37.4358 25.3 37.4358 26.13C37.4358 26.52 37.4808 26.885 37.5708 27.225C37.6708 27.555 37.8158 27.84 38.0058 28.08C38.1958 28.32 38.4208 28.51 38.6808 28.65C38.9508 28.79 39.2608 28.86 39.6108 28.86C40.0008 28.86 40.3308 28.78 40.6008 28.62C40.8708 28.46 41.0908 28.255 41.2608 28.005C41.4408 27.745 41.5658 27.455 41.6358 27.135C41.7158 26.805 41.7558 26.47 41.7558 26.13Z" fill="#111111"/>
<rect x="56.9844" width="48" height="48" rx="24" fill="#F5F5F5"/>
<g clip-path="url(#clip0_1_77)">
<path d="M84.509 30.9662L77.542 24.0002L84.509 17.0332" stroke="#CCCCCC" stroke-width="1.5"/>
</g>
<rect x="117.359" width="48" height="48" rx="24" fill="#E5E5E5"/>
<g clip-path="url(#clip1_1_77)">
<path d="M137.833 30.9662L144.799 24.0002L137.833 17.0332" stroke="#111111" stroke-width="1.5"/>
</g>
<defs>
<clipPath id="clip0_1_77">
<rect width="24" height="24" fill="white" transform="translate(68.9844 12)"/>
</clipPath>
<clipPath id="clip1_1_77">
<rect width="24" height="24" fill="white" transform="translate(129.359 12)"/>
</clipPath>
</defs>
</svg>
