<svg width="538" height="35" viewBox="0 0 538 35" fill="none" xmlns="http://www.w3.org/2000/svg">
<g clip-path="url(#clip0_1_5370)">
<path d="M17.294 8.64064C18.618 8.64064 19.862 9.15664 20.798 10.0916C21.7262 11.0216 22.2475 12.2818 22.2475 13.5956C22.2475 14.9095 21.7262 16.1697 20.798 17.0996L12.5 25.3986L4.20096 17.0996C3.27307 16.1698 2.75195 14.9098 2.75195 13.5961C2.75195 12.2825 3.27307 11.0225 4.20096 10.0926C4.65999 9.63094 5.20604 9.26488 5.80751 9.01564C6.40897 8.7664 7.0539 8.63894 7.70496 8.64064C9.02896 8.64064 10.273 9.15664 11.209 10.0916L11.969 10.8516L12.5 11.3826L13.03 10.8516L13.79 10.0916C14.2492 9.63026 14.7953 9.26446 15.3967 9.01541C15.9982 8.76636 16.643 8.63898 17.294 8.64064Z" stroke="#111111" stroke-width="1.5"/>
</g>
<g clip-path="url(#clip1_1_5370)">
<path d="M54.75 12.3906V24.3906M50.25 12.3906V24.3906M45.75 10.8906V24.3906C45.75 25.6306 46.76 26.6406 48 26.6406H57C58.24 26.6406 59.25 25.6306 59.25 24.3906V10.1406M59.25 10.1406H62M59.25 10.1406H61.5M49.5 7.14062H54.75C55.58 7.14062 56.25 7.81063 56.25 8.64062C56.25 9.47062 55.58 10.1406 54.75 10.1406H43.5" stroke="#111111" stroke-width="1.5" stroke-miterlimit="10"/>
</g>
<defs>
<clipPath id="clip0_1_5370">
<rect width="24" height="24" fill="white" transform="translate(0.5 4.89062)"/>
</clipPath>
<clipPath id="clip1_1_5370">
<rect width="24" height="24" fill="white" transform="translate(40.5 4.89062)"/>
</clipPath>
</defs>
</svg>
